<svg width="20" height="20" viewBox="0 0 20 20" fill="none" xmlns="http://www.w3.org/2000/svg">
<path d="M10 1.8C12.7 1.8 13 1.8 14 1.9C16.8 2 18 3.3 18.1 6C18.1 7 18.2 7.4 18.2 10C18.2 12.6 18.2 13 18.1 14C18 16.7 16.7 18 14 18.1C12.9 18.1 12.6 18.2 10 18.2C7.3 18.2 7 18.2 6 18.1C3.2 18 2 16.7 1.9 14C1.9 12.9 1.8 12.6 1.8 10C1.8 7.3 1.8 7 1.9 6C2 3.3 3.2 2 6 1.9C7 1.8 7.3 1.8 10 1.8ZM10 0C7.3 0 6.9 -9.68575e-08 5.9 0.0999999C2.2 0.2 0.2 2.2 0.0999999 5.9C-9.68575e-08 6.9 0 7.3 0 10C0 12.7 -9.68575e-08 13.1 0.0999999 14.1C0.3 17.7 2.3 19.7 5.9 19.9C6.9 20 7.3 20 10 20C12.7 20 13.1 20 14.1 19.9C17.7 19.7 19.7 17.7 19.9 14.1C19.9 13 20 12.7 20 10C20 7.3 20 6.9 19.9 5.9C19.7 2.3 17.7 0.2 14.1 0.0999999C13.1 -9.68575e-08 12.7 0 10 0ZM10 4.9C7.2 4.9 4.9 7.2 4.9 10C4.9 12.8 7.2 15.1 10 15.1C12.8 15.1 15.1 12.8 15.1 10C15.1 7.2 12.8 4.9 10 4.9ZM10 13.3C8.2 13.3 6.7 11.8 6.7 10C6.7 8.2 8.2 6.7 10 6.7C11.8 6.7 13.3 8.2 13.3 10C13.3 11.8 11.8 13.3 10 13.3ZM15.3 3.5C14.6 3.5 14.1 4 14.1 4.7C14.1 5.4 14.6 5.9 15.3 5.9C16 5.9 16.5 5.4 16.5 4.7C16.5 4 16 3.5 15.3 3.5Z" fill="white"/>
</svg>
