<svg width="21" height="18" viewBox="0 0 21 18" fill="none" xmlns="http://www.w3.org/2000/svg">
<path d="M21 2.10526C20.1845 2.42105 19.3689 2.73684 18.5534 2.8421C19.4709 2.31579 20.0825 1.36842 20.4903 0.31579C19.6748 0.842105 18.7573 1.15789 17.7379 1.36842C16.9223 0.526316 15.801 0 14.5777 0C11.8252 0 9.68447 2.73684 10.3981 5.57895C6.72816 5.36842 3.56796 3.57895 1.42718 0.842105C0.305825 2.84211 0.815534 5.47368 2.75243 6.8421C2.03884 6.8421 1.42718 6.63158 0.815534 6.31579C0.815534 8.42105 2.24272 10.3158 4.28155 10.8421C3.6699 11.0526 2.95631 11.0526 2.34466 10.9474C2.85437 12.7368 4.48544 14 6.42233 14.1053C4.58738 15.5789 2.34466 16.2105 0 16C1.93689 17.2632 4.17961 18 6.62621 18C14.6796 18 19.165 10.9474 18.9612 4.52632C19.6748 3.78947 20.4903 3.05263 21 2.10526Z" fill="white"/>
</svg>
